<svg id="Layer_1" data-name="Layer 1" xmlns="http://www.w3.org/2000/svg" viewBox="0 0 255.13 317.69"><defs><style>.cls-1{fill:#fba81d;}</style></defs><path class="cls-1" d="M51.78,110.57V68.7s9.79-19.57,20.35-9.79L82.7,68.7l98.6,98.6s12.92,10.57,0,26.22S73.5,301.33,73.5,301.33s-13.11,15.45-21.72-10c.79-30.13,0-40.7,0-40.7s51.65-38.17,51.65-70.15S76.43,138.74,51.78,110.57Z" transform="translate(-51.78 -22.23)"/><path class="cls-1" d="M119.41,45.9l45,45s56.38-17.64,62.25-45C218.87,29.46,158.48,2.07,119.41,45.9Z" transform="translate(-51.78 -22.23)"/><path class="cls-1" d="M306.91,140.51c-.78,17.53-47.34,24.74-47.34,24.74H235.7c-.79-2.74-5.71-8.78-5.71-8.78l-40.7-40.69s21.36-28.4,54.23-28.4C243.52,87.38,294.39,91.52,306.91,140.51Z" transform="translate(-51.78 -22.23)"/><path class="cls-1" d="M164.45,97.29" transform="translate(-51.78 -22.23)"/><path class="cls-1" d="M119.41,316.25l45-45s56.38,17.64,62.25,45C218.87,332.69,158.48,360.08,119.41,316.25Z" transform="translate(-51.78 -22.23)"/><path class="cls-1" d="M306.91,221.64c-.78-17.53-47.34-24.73-47.34-24.73H235.7c-.79,2.74-5.71,8.77-5.71,8.77l-40.7,40.69s21.36,28.41,54.23,28.41C243.52,274.78,294.39,270.63,306.91,221.64Z" transform="translate(-51.78 -22.23)"/><path class="cls-1" d="M164.45,271" transform="translate(-51.78 -22.23)"/></svg>